Coordinates
version=1
nRows=43
nColumns=12
inDegrees=yes

Units are S.I. units (second, meters, Newtons, ...)
Angles are in degrees

endheader
time	SC_y	SC_z	SC_x	AC_y	AC_z	AC_x	GH_y	GH_z	GH_yy	EL_x	PS_y
       0.0              -54.28          38.68          34.98          37.92          2.612           14.5         -127.9          14.88          176.9          37.88          103.0
   0.02339              -54.28          38.68          34.98          37.93          2.609          14.49         -127.9          14.88          176.9          37.89          103.0
   0.04679              -54.28          38.68          34.98          37.93          2.605          14.49         -127.8          14.89          176.9          37.91          103.0
   0.07018              -54.28          38.68          34.98          37.94          2.602          14.49         -127.8          14.89          176.9          37.92          103.0
   0.09358              -54.27          38.68          34.97          37.94          2.598          14.48         -127.8           14.9          176.9          37.94          103.0
     0.117              -54.27          38.67          34.97          37.95          2.594          14.48         -127.8           14.9          176.9          37.96          103.0
    0.1404              -54.27          38.67          34.97          37.95           2.59          14.48         -127.8          14.91          176.8          37.97          103.0
    0.1638              -54.26          38.67          34.97          37.96          2.586          14.47         -127.8          14.92          176.8          37.99          103.1
    0.1872              -54.26          38.67          34.96          37.96          2.581          14.47         -127.8          14.93          176.8          38.02          103.1
    0.2106              -54.26          38.67          34.96          37.97          2.576          14.46         -127.8          14.93          176.8          38.04          103.1
    0.2339              -54.25          38.66          34.96          37.98           2.57          14.46         -127.8          14.94          176.8          38.06          103.1
    0.2573              -54.25          38.66          34.95          37.98          2.564          14.45         -127.8          14.95          176.8          38.09          103.1
    0.2807              -54.25          38.66          34.95          37.99          2.558          14.45         -127.8          14.96          176.8          38.12          103.1
    0.3041              -54.24          38.66          34.95           38.0          2.551          14.44         -127.8          14.97          176.7          38.15          103.1
    0.3275              -54.24          38.65          34.94          38.01          2.543          14.43         -127.8          14.99          176.7          38.19          103.1
    0.3509              -54.23          38.65          34.94          38.02          2.535          14.42         -127.8           15.0          176.7          38.22          103.1
    0.3743              -54.23          38.65          34.93          38.03          2.527          14.41         -127.7          15.01          176.7          38.26          103.2
    0.3977              -54.22          38.64          34.93          38.04          2.517          14.41         -127.7          15.03          176.6          38.31          103.2
    0.4211              -54.21          38.64          34.92          38.06          2.506          14.39         -127.7          15.05          176.6          38.35          103.2
    0.4445               -54.2          38.64          34.92          38.07          2.495          14.38         -127.7          15.06          176.6           38.4          103.2
    0.4679               -54.2          38.63          34.91          38.09          2.482          14.37         -127.7          15.08          176.5          38.46          103.2
    0.4913              -54.19          38.63           34.9          38.11          2.468          14.36         -127.7          15.11          176.5          38.52          103.3
    0.5147              -54.18          38.62          34.89          38.13          2.453          14.34         -127.7          15.13          176.5          38.59          103.3
    0.5381              -54.17          38.61          34.88          38.15          2.436          14.33         -127.6          15.16          176.4          38.67          103.3
    0.5615              -54.15          38.61          34.87          38.17          2.417          14.31         -127.6          15.19          176.4          38.76          103.4
    0.5849              -54.14           38.6          34.86           38.2          2.396          14.29         -127.6          15.22          176.3          38.85          103.4
    0.6083              -54.12          38.59          34.85          38.23          2.372          14.26         -127.6          15.26          176.2          38.96          103.4
    0.6317              -54.11          38.58          34.83          38.26          2.346          14.24         -127.5           15.3          176.2          39.08          103.5
     0.655              -54.09          38.57          34.81           38.3          2.316          14.21         -127.5          15.35          176.1          39.21          103.5
    0.6784              -54.07          38.55          34.79          38.35          2.281          14.18         -127.4          15.41          176.0          39.37          103.6
    0.7018              -54.04          38.54          34.77           38.4          2.243          14.14         -127.4          15.47          175.9          39.54          103.7
    0.7252              -54.01          38.52          34.75          38.45          2.198          14.09         -127.3          15.54          175.8          39.74          103.7
    0.7486              -53.98           38.5          34.72          38.52          2.146          14.04         -127.3          15.63          175.6          39.98          103.8
     0.772              -53.94          38.48          34.68           38.6          2.086          13.99         -127.2          15.72          175.4          40.25          103.9
    0.7954              -53.89          38.45          34.64          38.69          2.016          13.92         -127.1          15.84          175.2          40.56          104.1
    0.8188              -53.84          38.42          34.59          38.79          1.933          13.84         -127.0          15.97          175.0          40.94          104.2
    0.8422              -53.77          38.38          34.54          38.92          1.835          13.74         -126.9          16.13          174.7          41.38          104.4
    0.8656               -53.7          38.34          34.47          39.07          1.717          13.63         -126.7          16.32          174.4          41.91          104.6
     0.889               -53.6          38.28          34.39          39.25          1.575          13.49         -126.5          16.55          174.0          42.55          104.9
    0.9124              -53.49          38.21          34.29          39.48            1.4          13.32         -126.3          16.83          173.5          43.34          105.2
    0.9358              -53.35          38.13          34.17          39.75          1.186          13.11         -126.0          17.17          172.9          44.31          105.5
    0.9592              -53.17          38.03          34.01           40.1         0.9175          12.85         -125.7           17.6          172.2          45.52          106.0
    0.9826              -52.95           37.9          33.82          40.53         0.5798          12.52         -125.3          18.15          171.2          47.04          106.6
